<?xml version="1.0" encoding="UTF-8" standalone="no"?>
<svg
   id="Ebene_1"
   data-name="Ebene 1"
   viewBox="0 0 393.93 100"
   version="1.1"
   sodipodi:docname="logo.svg"
   inkscape:export-filename="logo.png"
   inkscape:export-xdpi="467.90039"
   inkscape:export-ydpi="467.90039"
   inkscape:version="1.3.2 (091e20e, 2023-11-25, custom)"
   xmlns:inkscape="http://www.inkscape.org/namespaces/inkscape"
   xmlns:sodipodi="http://sodipodi.sourceforge.net/DTD/sodipodi-0.dtd"
   xmlns="http://www.w3.org/2000/svg"
   xmlns:svg="http://www.w3.org/2000/svg">
  <sodipodi:namedview
     id="namedview2"
     pagecolor="#ffffff"
     bordercolor="#000000"
     borderopacity="0.25"
     inkscape:showpageshadow="2"
     inkscape:pageopacity="0.0"
     inkscape:pagecheckerboard="0"
     inkscape:deskcolor="#d1d1d1"
     inkscape:export-bgcolor="#00000000"
     inkscape:zoom="2.7771432"
     inkscape:cx="196.965"
     inkscape:cy="49.871393"
     inkscape:window-width="1920"
     inkscape:window-height="991"
     inkscape:window-x="-9"
     inkscape:window-y="-9"
     inkscape:window-maximized="1"
     inkscape:current-layer="Ebene_1" />
  <defs
     id="defs1">
    <style
       id="style1">.cls-1{fill:#00803d;}</style>
  </defs>
  <path
     class="cls-1"
     d="M277.4,386.06a13.79,13.79,0,0,0-6,3.3s-1.08.5-.75-.89c0,0,5-3.42,4.24-5.77,0,0-.66-2.83-2.22-.07a30.81,30.81,0,0,1-2.73,5.27s-.95,1.46-.69-.57c0,0,3-5.83-.07-7,0,0-2.32-1.23-1.46,2.21a15.32,15.32,0,0,1,.83,4.38s-.07,1.07-1.27.19c0,0-5.29-4.46-6.4-.76,0,0-.44,2.28,1.91,2,0,0,6.64-.5,4.31,3.49a43.82,43.82,0,0,0-6.8,11.66c.24.3.45.61.66.93a40,40,0,0,1,10.83-13,11.34,11.34,0,0,1,4.94-2.53s3.8-1.39.69-2.79m-14.62,24.16c0,6.37-5.87,11.53-13.12,11.53s-13.11-5.16-13.11-11.53c0-.75.14-2,.14-2a90.88,90.88,0,0,0-23,28.67c-6.88,13.32-10.35,28.34-2.93,33.18,8.35,5.44,14.9-3.06,18.29-6.82,9.95-11,21.31-1.76,25.82,2.27,13,11.6,19.67,5.17,20.18-2.18,1-14.27-3.72-39.54-12.29-53.42a2.89,2.89,0,0,1,0,.29M255.58,400a98.27,98.27,0,0,0-37.15-27.4c-13.46-4-5.82,10.9-5.82,10.9,9.51,17.66,7.93,32.51,6.31,39.41.12-.17,16.84-25.87,36.66-22.91Zm-48,5.5a15.09,15.09,0,0,1,.82-4.37c.88-3.37-1.45-2.22-1.45-2.22-3.1,1.21-.06,7-.06,7,.39,2-.71.57-.71.57a30.83,30.83,0,0,1-2.71-5.26c-1.41-2.69-2.22.07-2.22.07-.76,2.34,4.24,5.76,4.24,5.76.52,1.33-.76.89-.76.89a13.71,13.71,0,0,0-6-3.29c-3.07,1.46.7,2.78.7,2.78a11.49,11.49,0,0,1,4.94,2.54c9.94,7.86,12.61,17.23,12.61,17.23-.26-7.73-7.92-16.79-7.92-16.79-2.35-4,4.31-3.48,4.31-3.48,2.35.25,1.9-2,1.9-2-1.38-3.9-6.4.76-6.4.76-1.21.89-1.27-.19-1.27-.19"
     transform="translate(-98.98 -371.89)"
     id="path1" />
  <path
     class="cls-1"
     d="M104.56,440a70.73,70.73,0,0,1-3.22,19.49L99,467.65h10l2.43-8.17a70.41,70.41,0,0,0,2.68-19.57v-37.8h-9.51V440Zm38.5,2.83q0,5.34-5.73,5.34t-5.74-5.34V402.11h-9.43v41.18a12.9,12.9,0,0,0,3.81,9.78q3.81,3.66,11.32,3.66t11.35-3.66a12.82,12.82,0,0,0,3.85-9.78V402.11h-9.43v40.71Zm16.74,1.1q0,6,4,9.23t11.67,3.18a29.08,29.08,0,0,0,13.75-3.22V428H180v18.86a8.31,8.31,0,0,1-4.4,1c-4.2,0-6.29-1.6-6.29-4.8V415.47q0-5.1,7.54-5.11a30.47,30.47,0,0,1,10.38,1.73v-9a37.91,37.91,0,0,0-11.56-1.41q-7.3,0-11.59,3.42a11.37,11.37,0,0,0-4.28,9.39v29.39Zm132.57-25.46q0,7.31,6.83,11l9,5a9,9,0,0,1,3.38,2.83,7.6,7.6,0,0,1,.94,4.09v3.3q0,6.51-9.27,6.52a30,30,0,0,1-10.53-1.73v5.34a31.46,31.46,0,0,0,11,1.57q7,0,10.65-3a10.21,10.21,0,0,0,3.69-8.41V440.7a11.19,11.19,0,0,0-6.36-10.45l-9.12-5.11a10.25,10.25,0,0,1-3.57-3,7.62,7.62,0,0,1-1.07-4.32v-3.77q0-6.13,8.1-6.13a29.4,29.4,0,0,1,10,1.49v-5.34a36.16,36.16,0,0,0-10.57-1.34q-6.25,0-9.71,2.95a10.11,10.11,0,0,0-3.45,8.13v4.64Zm61.37,37.48-11.95-52.81h-7.85L322,455.94h5.58l3.22-14.77h14.15l3.22,14.77Zm-15.95-47.38,6,27.74h-12l6-27.74Zm32.76,14.69-8.4-20.12h-6l11.47,26.41-11.47,26.4h6.12l8.33-20,8.26,20h6.05l-11.48-26.4,11.48-26.41h-6.05l-8.26,20.12Zm41,20.9q0,7.55-7.74,7.55t-7.74-7.55V414.92q0-7.46,7.74-7.46t7.74,7.46v29.23Zm-21.06.16a12.32,12.32,0,0,0,3.35,9q3.33,3.42,9.94,3.42t10-3.42a12.25,12.25,0,0,0,3.37-9V414.84a12.36,12.36,0,0,0-3.37-9q-3.39-3.46-9.95-3.46t-9.94,3.46a12.36,12.36,0,0,0-3.38,9v29.47Zm43.15-41.18h-6.45v52.81h5.42V429.46l-.47-17.29q5.58,14.77,6.21,16.42l10.84,27.35h6.45V403.13h-5.58v26.49l.55,17.36q-4.49-12.09-17-43.85Zm46.28,35,13-35h-5.66q-7.08,19.41-10,28.45-4.49-13.2-4.79-14.07l-5.35-14.38H461.4l13,35v17.84h5.58V438.1Z"
     transform="translate(-98.98 -371.89)"
     id="path2" />
</svg>
